<?xml version="1.0" encoding="UTF-8"?>
<svg xmlns="http://www.w3.org/2000/svg" xmlns:xlink="http://www.w3.org/1999/xlink" viewBox="0 0 26 26" width="26px" height="26px">
<g id="surface47304249">
<path style=" stroke:none;fill-rule:nonzero;fill:rgb(92.54902%,94.117647%,94.509804%);fill-opacity:1;" d="M 24.523438 11.035156 L 21.449219 10.53125 C 21.269531 9.914062 21.023438 9.324219 20.714844 8.761719 L 22.511719 6.207031 C 22.65625 6 22.628906 5.71875 22.453125 5.539062 L 20.429688 3.515625 C 20.25 3.335938 19.964844 3.3125 19.757812 3.464844 L 17.238281 5.273438 C 16.671875 4.960938 16.074219 4.710938 15.457031 4.53125 L 14.917969 1.46875 C 14.875 1.222656 14.660156 1.039062 14.40625 1.039062 L 11.546875 1.039062 C 11.292969 1.039062 11.074219 1.222656 11.035156 1.476562 L 10.535156 4.519531 C 9.914062 4.699219 9.3125 4.945312 8.75 5.253906 L 6.238281 3.460938 C 6.03125 3.3125 5.75 3.335938 5.566406 3.515625 L 3.546875 5.535156 C 3.367188 5.714844 3.34375 5.996094 3.488281 6.203125 L 5.253906 8.730469 C 4.941406 9.300781 4.691406 9.902344 4.507812 10.53125 L 1.476562 11.035156 C 1.226562 11.078125 1.042969 11.292969 1.042969 11.546875 L 1.042969 14.40625 C 1.042969 14.660156 1.222656 14.875 1.46875 14.921875 L 4.503906 15.457031 C 4.683594 16.082031 4.933594 16.6875 5.25 17.257812 L 3.460938 19.761719 C 3.3125 19.964844 3.335938 20.25 3.515625 20.429688 L 5.539062 22.453125 C 5.714844 22.632812 5.996094 22.65625 6.203125 22.511719 L 8.734375 20.738281 C 9.304688 21.050781 9.90625 21.296875 10.527344 21.480469 L 11.035156 24.527344 C 11.074219 24.777344 11.292969 24.960938 11.546875 24.960938 L 14.40625 24.960938 C 14.660156 24.960938 14.875 24.777344 14.917969 24.53125 L 15.460938 21.46875 C 16.085938 21.285156 16.683594 21.035156 17.246094 20.722656 L 19.796875 22.511719 C 20.003906 22.65625 20.285156 22.632812 20.464844 22.453125 L 22.484375 20.429688 C 22.664062 20.25 22.6875 19.964844 22.539062 19.757812 L 20.71875 17.234375 C 21.027344 16.671875 21.273438 16.078125 21.453125 15.460938 L 24.527344 14.921875 C 24.777344 14.875 24.957031 14.660156 24.957031 14.40625 L 24.957031 11.546875 C 24.960938 11.292969 24.773438 11.074219 24.523438 11.035156 Z M 13 16.640625 C 10.988281 16.640625 9.359375 15.011719 9.359375 13 C 9.359375 10.988281 10.988281 9.359375 13 9.359375 C 15.011719 9.359375 16.640625 10.988281 16.640625 13 C 16.640625 15.011719 15.011719 16.640625 13 16.640625 Z M 13 16.640625 "/>
</g>
</svg>
